Coordinates
version=1
nRows=14
nColumns=40
inDegrees=yes

Units are S.I. units (second, meters, Newtons, ...)
Angles are in degrees.

endheader
time	pelvis_tilt	pelvis_list	pelvis_rotation	pelvis_tx	pelvis_ty	pelvis_tz	hip_flexion_r	hip_adduction_r	hip_rotation_r	knee_angle_r	knee_angle_r_beta	ankle_angle_r	subtalar_angle_r	mtp_angle_r	hip_flexion_l	hip_adduction_l	hip_rotation_l	knee_angle_l	knee_angle_l_beta	ankle_angle_l	subtalar_angle_l	mtp_angle_l	lumbar_extension	lumbar_bending	lumbar_rotation	arm_flex_r	arm_add_r	arm_rot_r	elbow_flex_r	pro_sup_r	wrist_flex_r	wrist_dev_r	arm_flex_l	arm_add_l	arm_rot_l	elbow_flex_l	pro_sup_l	wrist_flex_l	wrist_dev_l
     50.96000000	     -5.28735526	     -6.06526452	     -1.96960525	      0.92767008	      0.93162834	      0.42306562	     31.35046065	     -3.73058531	     -5.79935181	     66.71655099	     66.71655099	      4.46360634	    -13.62216220	     -0.07083075	     18.71727482	     -7.21589643	     -7.58756043	     23.72266615	     23.72266615	     13.47164606	     -6.56587402	     -1.13267599	    -11.13107228	      4.79250391	      0.67774129	      5.73711023	    -13.08820505	      1.66635353	     35.52539822	     44.71789600	      0.00000000	      0.00000000	     19.62121317	    -14.92096614	     -2.13449553	     39.04626342	     44.60815094	      0.00000000	      0.00000000
     50.97300000	     -5.28116577	     -6.16038588	     -2.22425746	      0.92679432	      0.93236568	      0.42323020	     32.19898239	     -3.43504519	     -5.47155345	     65.12148083	     65.12148083	      4.40370876	    -13.15676874	     -0.15864889	     17.97562744	     -7.29627125	     -7.70336369	     23.24911966	     23.24911966	     13.64533904	     -6.66251209	     -1.14281027	    -11.23550473	      4.88572965	      0.72100136	      3.49734725	    -13.41486260	      1.60500714	     34.33398435	     44.77309902	      0.00000000	      0.00000000	     20.73733673	    -15.27488363	     -2.51011444	     40.25890299	     44.70258950	      0.00000000	      0.00000000
     50.98600000	     -5.29349732	     -6.21514971	     -2.49107097	      0.92592785	      0.93304632	      0.42338433	     32.93145270	     -3.21559495	     -5.23519630	     63.27005880	     63.27005880	      4.12878268	    -12.69866928	     -0.39290877	     17.24595965	     -7.29506419	     -7.73245633	     22.74679492	     22.74679492	     13.74934662	     -6.98536246	     -1.25666838	    -11.31502323	      4.92863244	      0.79529255	      1.35234855	    -13.65223579	      1.25983922	     33.03009573	     44.86315491	      0.00000000	      0.00000000	     21.64203025	    -15.53901108	     -3.14310526	     41.96748436	     44.84449206	      0.00000000	      0.00000000
     50.99900000	     -5.27919982	     -6.34629160	     -2.75425964	      0.92507919	      0.93367734	      0.42363682	     33.49540891	     -2.85133528	     -4.98047204	     61.18656733	     61.18656733	      4.03146584	    -12.15388505	     -0.38560653	     16.47511823	     -7.39206682	     -7.79889517	     22.21767436	     22.21767436	     13.88452159	     -7.17165045	     -1.27659821	    -11.44872976	      5.07352268	      0.64119388	     -0.65932793	    -13.95361997	      1.04324314	     31.90265423	     44.92393812	      0.00000000	      0.00000000	     22.57370451	    -15.95403389	     -3.60934106	     43.20414589	     44.93741536	      0.00000000	      0.00000000
     51.01200000	     -5.30811443	     -6.37823735	     -3.01343537	      0.92426175	      0.93407051	      0.42388555	     33.96404187	     -2.60110095	     -4.76643257	     58.79721100	     58.79721100	      3.67028630	    -11.65841312	     -1.02697606	     15.77786564	     -7.34491102	     -7.71499419	     21.69448157	     21.69448157	     13.72919308	     -7.77727023	     -1.83645436	    -11.55889476	      5.11819895	      0.30629563	     -2.22594454	    -13.88170535	     -0.49570234	     30.09135944	     45.16085784	      0.00000000	      0.00000000	     22.73693952	    -16.38100265	     -5.18901970	     46.06836718	     45.23578805	      0.00000000	      0.00000000
     51.02500000	     -5.33972792	     -6.45394207	     -3.29902573	      0.92348411	      0.93445222	      0.42425754	     34.27058141	     -2.29782651	     -4.65642348	     56.07425974	     56.07425974	      3.55137900	    -10.90477467	     -0.82927374	     15.09699425	     -7.40308349	     -7.84591747	     21.24306098	     21.24306098	     13.90748685	     -7.89900940	     -1.82622757	    -11.59355752	      5.23654763	      0.26324506	     -4.03869059	    -14.19852931	     -0.68513197	     29.09244407	     45.21239846	      0.00000000	      0.00000000	     23.65422524	    -16.75734608	     -5.54588207	     47.04698200	     45.30642216	      0.00000000	      0.00000000
     51.03800000	     -5.41865836	     -6.44793443	     -3.62746020	      0.92267101	      0.93459210	      0.42477528	     34.45028357	     -2.03641331	     -4.56476464	     52.93093809	     52.93093809	      3.03132692	    -10.26021454	     -2.03206020	     14.46037254	     -7.35683362	     -7.91299903	     20.73945093	     20.73945093	     13.78574703	     -8.40163211	     -2.41514091	    -11.68716746	      5.22839684	      0.20420582	     -5.19457548	    -13.93749111	     -4.25896088	     26.70160641	     45.74713316	      0.00000000	      0.00000000	     23.96516808	    -16.95171710	     -7.23367031	     49.60438247	     45.79740781	      0.00000000	      0.00000000
     51.05100000	     -5.46512417	     -6.42792198	     -3.96602418	      0.92185316	      0.93466686	      0.42540185	     34.48648532	     -1.79261088	     -4.58274875	     49.55413055	     49.55413055	      2.98357204	     -9.07393844	     -1.85512428	     13.84727552	     -7.31792537	     -8.02242719	     20.37557994	     20.37557994	     13.97208175	     -8.68719669	     -2.31917960	    -11.82322356	      5.25000575	      0.39564531	     -7.07704923	    -14.14854640	     -4.48065243	     26.00489203	     45.79045480	      0.00000000	      0.00000000	     24.77364544	    -17.27596549	     -7.50345313	     51.10750208	     45.86867917	      0.00000000	      0.00000000
     51.06400000	     -5.59175843	     -6.49121878	     -4.23749760	      0.92116278	      0.93454511	      0.42605567	     34.31330120	     -1.48653437	     -4.86355187	     45.67410244	     45.67410244	      2.93675499	     -7.78693911	     -1.63481463	     13.37366476	     -7.37777311	     -8.02077303	     20.10688607	     20.10688607	     14.23707841	     -8.91983859	     -2.34246234	    -11.76764096	      5.29644797	      0.38002267	     -8.63143674	    -14.51807956	     -4.72520854	     25.43283420	     45.82886348	      0.00000000	      0.00000000	     25.27308604	    -17.49220701	     -7.74582350	     52.38337387	     45.92231107	      0.00000000	      0.00000000
     51.07700000	     -5.76022499	     -6.34607314	     -4.63585162	      0.92044853	      0.93413038	      0.42690332	     34.08850226	     -1.30473144	     -5.07539464	     41.52517509	     41.52517509	      2.45531600	     -6.30172370	     -2.47216972	     12.94159338	     -7.21504632	     -8.12556251	     19.84054564	     19.84054564	     14.33918131	     -9.48110818	     -2.42701747	    -11.75642311	      5.19639457	      0.34183903	    -10.15370023	    -14.58149122	     -5.93530342	     25.24121722	     45.95613331	      0.00000000	      0.00000000	     25.02806716	    -18.11190260	     -8.56298687	     55.91384241	     46.09074660	      0.00000000	      0.00000000
     51.09000000	     -5.99058986	     -6.31223274	     -4.96810286	      0.91982228	      0.93358587	      0.42784815	     33.70001230	     -0.96957294	     -5.46203965	     37.07509572	     37.07509572	      2.25381986	     -4.61340104	     -1.98022822	     12.63012717	     -7.21930572	     -8.26215005	     19.69055074	     19.69055074	     14.59280195	     -9.68858132	     -2.49956372	    -11.58441340	      5.24188029	      0.38047470	    -11.48096563	    -14.79108249	     -6.11865836	     24.69659469	     45.98787830	      0.00000000	      0.00000000	     25.57655359	    -18.47939175	     -8.80807234	     56.83915692	     46.13684665	      0.00000000	      0.00000000
     51.10300000	     -6.13782531	     -6.25537860	     -5.30166532	      0.91936616	      0.93301390	      0.42892529	     33.01628712	     -0.64670614	     -6.04551173	     32.41429845	     32.41429845	      1.98390218	     -2.49338281	     -1.43480410	     12.23004515	     -7.19225330	     -8.37276961	     19.56678030	     19.56678030	     14.85039554	     -9.96220165	     -2.56183001	    -11.53528961	      5.24030105	      0.64306025	    -12.83998933	    -14.95538387	     -6.36770621	     24.21243116	     46.02283267	      0.00000000	      0.00000000	     26.05056671	    -18.65657134	     -9.06078849	     58.28129895	     46.19042053	      0.00000000	      0.00000000
     51.11600000	     -6.16254826	     -6.07869331	     -5.63395084	      0.91919531	      0.93232787	      0.43004841	     32.12101716	     -0.47416345	     -6.88330494	     27.84272318	     27.84272318	      1.66839794	      0.16887524	     -0.86810522	     11.70067615	     -7.02166888	     -8.50540642	     19.48006489	     19.48006489	     15.14903658	    -10.31006578	     -2.65121515	    -11.63224125	      5.08212062	      0.98724070	    -14.20174877	    -15.02872498	     -6.89810367	     23.94284717	     46.07661450	      0.00000000	      0.00000000	     26.25910990	    -18.81116883	     -9.41024214	     60.68261210	     46.27145194	      0.00000000	      0.00000000
     51.12900000	     -6.34279422	     -5.94870766	     -5.92588104	      0.91916666	      0.93137155	      0.43133959	     31.24687748	     -0.10845400	     -7.61470835	     23.30382224	     23.30382224	      1.13056984	      2.32752222	      0.23982393	     11.36396489	     -6.92720343	     -8.60634376	     19.44328056	     19.44328056	     15.42995770	    -10.61215054	     -2.76102255	    -11.42977197	      4.99873905	      1.09204311	    -15.30683271	    -15.07849505	     -7.27145947	     23.74432874	     46.11242147	      0.00000000	      0.00000000	     26.37464698	    -19.07211535	     -9.63885341	     62.27627683	     46.32533248	      0.00000000	      0.00000000
